<!-- favicon.svg -->
<svg width="24" height="24" viewBox="0 0 24 24" fill="none" xmlns="http://www.w3.org/2000/svg">
  <path d="M12 2L2 6V12C2 18 12 22 12 22C12 22 22 18 22 12V6L12 2Z" fill="darkblue" />
  <path d="M12 10C11.4477 10 11 10.4477 11 11V13C11 13.5523 11.4477 14 12 14C12.5523 14 13 13.5523 13 13V11C13 10.4477 12.5523 10 12 10Z" fill="black" />
  <path d="M12 8C10.3431 8 9 9.34315 9 11V13C9 14.6569 10.3431 16 12 16C13.6569 16 15 14.6569 15 13V11C15 9.34315 13.6569 8 12 8Z" fill="white" />
</svg>
